<mxfile host="app.diagrams.net" modified="2023-07-14T02:09:09.760Z" agent="Mozilla/5.0 (Windows NT 10.0; Win64; x64) AppleWebKit/537.36 (KHTML, like Gecko) Chrome/114.0.0.0 Safari/537.36" etag="7SceVl9Q05tZTulcxSYH" version="21.6.2" type="device">
  <diagram id="C5RBs43oDa-KdzZeNtuy" name="Page-1">
    <mxGraphModel dx="1674" dy="731" grid="1" gridSize="10" guides="1" tooltips="1" connect="1" arrows="1" fold="1" page="1" pageScale="1" pageWidth="827" pageHeight="1169" math="0" shadow="0">
      <root>
        <mxCell id="WIyWlLk6GJQsqaUBKTNV-0" />
        <mxCell id="WIyWlLk6GJQsqaUBKTNV-1" parent="WIyWlLk6GJQsqaUBKTNV-0" />
        <mxCell id="VPJglRKq1H73eoKTP5gc-0" value="" style="rounded=0;html=1;jettySize=auto;orthogonalLoop=1;fontSize=11;endArrow=block;endFill=0;endSize=8;strokeWidth=1;shadow=0;labelBackgroundColor=none;edgeStyle=orthogonalEdgeStyle;entryX=0;entryY=0.5;entryDx=0;entryDy=0;exitX=1;exitY=0.5;exitDx=0;exitDy=0;" edge="1" parent="WIyWlLk6GJQsqaUBKTNV-1" source="VPJglRKq1H73eoKTP5gc-2" target="VPJglRKq1H73eoKTP5gc-4">
          <mxGeometry relative="1" as="geometry">
            <mxPoint x="344" y="311.25" as="sourcePoint" />
            <mxPoint x="344" y="361.25" as="targetPoint" />
          </mxGeometry>
        </mxCell>
        <mxCell id="VPJglRKq1H73eoKTP5gc-1" value="VENDEDOR" style="rounded=1;whiteSpace=wrap;html=1;fontSize=12;glass=0;strokeWidth=1;shadow=0;" vertex="1" parent="WIyWlLk6GJQsqaUBKTNV-1">
          <mxGeometry x="164" y="206.25" width="120" height="40" as="geometry" />
        </mxCell>
        <mxCell id="VPJglRKq1H73eoKTP5gc-2" value="VENTA" style="rhombus;whiteSpace=wrap;html=1;shadow=0;fontFamily=Helvetica;fontSize=12;align=center;strokeWidth=1;spacing=6;spacingTop=-4;" vertex="1" parent="WIyWlLk6GJQsqaUBKTNV-1">
          <mxGeometry x="166" y="353.75" width="116" height="115" as="geometry" />
        </mxCell>
        <mxCell id="VPJglRKq1H73eoKTP5gc-3" value="CLIENTE" style="rounded=1;whiteSpace=wrap;html=1;fontSize=12;glass=0;strokeWidth=1;shadow=0;" vertex="1" parent="WIyWlLk6GJQsqaUBKTNV-1">
          <mxGeometry x="506" y="205" width="120" height="40" as="geometry" />
        </mxCell>
        <mxCell id="VPJglRKq1H73eoKTP5gc-4" value="PRODUCTO" style="rounded=1;whiteSpace=wrap;html=1;fontSize=12;glass=0;strokeWidth=1;shadow=0;" vertex="1" parent="WIyWlLk6GJQsqaUBKTNV-1">
          <mxGeometry x="349" y="391.25" width="120" height="40" as="geometry" />
        </mxCell>
        <mxCell id="VPJglRKq1H73eoKTP5gc-5" value="NOMBRE" style="ellipse;whiteSpace=wrap;html=1;" vertex="1" parent="WIyWlLk6GJQsqaUBKTNV-1">
          <mxGeometry x="150" y="121.25" width="60" height="50" as="geometry" />
        </mxCell>
        <mxCell id="VPJglRKq1H73eoKTP5gc-6" value="ID" style="ellipse;whiteSpace=wrap;html=1;" vertex="1" parent="WIyWlLk6GJQsqaUBKTNV-1">
          <mxGeometry x="100" y="161.25" width="40" height="30" as="geometry" />
        </mxCell>
        <mxCell id="VPJglRKq1H73eoKTP5gc-7" value="TEL" style="ellipse;whiteSpace=wrap;html=1;" vertex="1" parent="WIyWlLk6GJQsqaUBKTNV-1">
          <mxGeometry x="80" y="211.25" width="50" height="30" as="geometry" />
        </mxCell>
        <mxCell id="VPJglRKq1H73eoKTP5gc-8" value="DIREC" style="ellipse;whiteSpace=wrap;html=1;" vertex="1" parent="WIyWlLk6GJQsqaUBKTNV-1">
          <mxGeometry x="95" y="261.25" width="50" height="40" as="geometry" />
        </mxCell>
        <mxCell id="VPJglRKq1H73eoKTP5gc-9" value="EMAIL" style="ellipse;whiteSpace=wrap;html=1;" vertex="1" parent="WIyWlLk6GJQsqaUBKTNV-1">
          <mxGeometry x="155" y="281.25" width="50" height="30" as="geometry" />
        </mxCell>
        <mxCell id="VPJglRKq1H73eoKTP5gc-10" value="" style="endArrow=none;html=1;rounded=0;entryX=0.167;entryY=1.125;entryDx=0;entryDy=0;entryPerimeter=0;exitX=0.5;exitY=0;exitDx=0;exitDy=0;" edge="1" parent="WIyWlLk6GJQsqaUBKTNV-1" source="VPJglRKq1H73eoKTP5gc-9" target="VPJglRKq1H73eoKTP5gc-1">
          <mxGeometry width="50" height="50" relative="1" as="geometry">
            <mxPoint x="210" y="321.25" as="sourcePoint" />
            <mxPoint x="240" y="281.25" as="targetPoint" />
          </mxGeometry>
        </mxCell>
        <mxCell id="VPJglRKq1H73eoKTP5gc-11" value="" style="endArrow=none;html=1;rounded=0;exitX=1;exitY=0;exitDx=0;exitDy=0;entryX=0;entryY=1;entryDx=0;entryDy=0;" edge="1" parent="WIyWlLk6GJQsqaUBKTNV-1" source="VPJglRKq1H73eoKTP5gc-8" target="VPJglRKq1H73eoKTP5gc-1">
          <mxGeometry width="50" height="50" relative="1" as="geometry">
            <mxPoint x="120" y="261.25" as="sourcePoint" />
            <mxPoint x="170" y="211.25" as="targetPoint" />
          </mxGeometry>
        </mxCell>
        <mxCell id="VPJglRKq1H73eoKTP5gc-12" value="" style="endArrow=none;html=1;rounded=0;entryX=0;entryY=0.5;entryDx=0;entryDy=0;" edge="1" parent="WIyWlLk6GJQsqaUBKTNV-1" target="VPJglRKq1H73eoKTP5gc-1">
          <mxGeometry width="50" height="50" relative="1" as="geometry">
            <mxPoint x="130" y="231.25" as="sourcePoint" />
            <mxPoint x="180" y="181.25" as="targetPoint" />
          </mxGeometry>
        </mxCell>
        <mxCell id="VPJglRKq1H73eoKTP5gc-13" value="" style="endArrow=none;html=1;rounded=0;exitX=0.083;exitY=0.025;exitDx=0;exitDy=0;exitPerimeter=0;entryX=0.5;entryY=1;entryDx=0;entryDy=0;" edge="1" parent="WIyWlLk6GJQsqaUBKTNV-1" source="VPJglRKq1H73eoKTP5gc-1" target="VPJglRKq1H73eoKTP5gc-5">
          <mxGeometry width="50" height="50" relative="1" as="geometry">
            <mxPoint x="200" y="201.25" as="sourcePoint" />
            <mxPoint x="250" y="151.25" as="targetPoint" />
          </mxGeometry>
        </mxCell>
        <mxCell id="VPJglRKq1H73eoKTP5gc-14" value="" style="endArrow=none;html=1;rounded=0;entryX=1;entryY=1;entryDx=0;entryDy=0;exitX=0;exitY=0.25;exitDx=0;exitDy=0;" edge="1" parent="WIyWlLk6GJQsqaUBKTNV-1" source="VPJglRKq1H73eoKTP5gc-1" target="VPJglRKq1H73eoKTP5gc-6">
          <mxGeometry width="50" height="50" relative="1" as="geometry">
            <mxPoint x="130" y="241.25" as="sourcePoint" />
            <mxPoint x="180" y="191.25" as="targetPoint" />
          </mxGeometry>
        </mxCell>
        <mxCell id="VPJglRKq1H73eoKTP5gc-15" value="NOMBRE" style="ellipse;whiteSpace=wrap;html=1;" vertex="1" parent="WIyWlLk6GJQsqaUBKTNV-1">
          <mxGeometry x="578" y="120" width="60" height="50" as="geometry" />
        </mxCell>
        <mxCell id="VPJglRKq1H73eoKTP5gc-16" value="ID" style="ellipse;whiteSpace=wrap;html=1;" vertex="1" parent="WIyWlLk6GJQsqaUBKTNV-1">
          <mxGeometry x="658" y="150" width="40" height="30" as="geometry" />
        </mxCell>
        <mxCell id="VPJglRKq1H73eoKTP5gc-17" value="TEL" style="ellipse;whiteSpace=wrap;html=1;" vertex="1" parent="WIyWlLk6GJQsqaUBKTNV-1">
          <mxGeometry x="674" y="201.25" width="50" height="30" as="geometry" />
        </mxCell>
        <mxCell id="VPJglRKq1H73eoKTP5gc-18" value="DIREC" style="ellipse;whiteSpace=wrap;html=1;" vertex="1" parent="WIyWlLk6GJQsqaUBKTNV-1">
          <mxGeometry x="653" y="250" width="50" height="40" as="geometry" />
        </mxCell>
        <mxCell id="VPJglRKq1H73eoKTP5gc-19" value="EMAIL" style="ellipse;whiteSpace=wrap;html=1;" vertex="1" parent="WIyWlLk6GJQsqaUBKTNV-1">
          <mxGeometry x="588" y="280" width="50" height="30" as="geometry" />
        </mxCell>
        <mxCell id="VPJglRKq1H73eoKTP5gc-20" value="" style="endArrow=none;html=1;rounded=0;exitX=0.75;exitY=0;exitDx=0;exitDy=0;entryX=0.5;entryY=1;entryDx=0;entryDy=0;" edge="1" parent="WIyWlLk6GJQsqaUBKTNV-1" source="VPJglRKq1H73eoKTP5gc-3" target="VPJglRKq1H73eoKTP5gc-15">
          <mxGeometry width="50" height="50" relative="1" as="geometry">
            <mxPoint x="558" y="220" as="sourcePoint" />
            <mxPoint x="608" y="170" as="targetPoint" />
          </mxGeometry>
        </mxCell>
        <mxCell id="VPJglRKq1H73eoKTP5gc-21" value="" style="endArrow=none;html=1;rounded=0;entryX=0;entryY=1;entryDx=0;entryDy=0;exitX=1;exitY=0;exitDx=0;exitDy=0;" edge="1" parent="WIyWlLk6GJQsqaUBKTNV-1" source="VPJglRKq1H73eoKTP5gc-3" target="VPJglRKq1H73eoKTP5gc-16">
          <mxGeometry width="50" height="50" relative="1" as="geometry">
            <mxPoint x="634" y="201.25" as="sourcePoint" />
            <mxPoint x="678" y="160" as="targetPoint" />
          </mxGeometry>
        </mxCell>
        <mxCell id="VPJglRKq1H73eoKTP5gc-22" value="" style="endArrow=none;html=1;rounded=0;entryX=0.808;entryY=0.975;entryDx=0;entryDy=0;entryPerimeter=0;" edge="1" parent="WIyWlLk6GJQsqaUBKTNV-1" target="VPJglRKq1H73eoKTP5gc-3">
          <mxGeometry width="50" height="50" relative="1" as="geometry">
            <mxPoint x="608" y="280" as="sourcePoint" />
            <mxPoint x="608" y="260" as="targetPoint" />
          </mxGeometry>
        </mxCell>
        <mxCell id="VPJglRKq1H73eoKTP5gc-23" value="" style="endArrow=none;html=1;rounded=0;exitX=1;exitY=0.5;exitDx=0;exitDy=0;entryX=0;entryY=0.5;entryDx=0;entryDy=0;" edge="1" parent="WIyWlLk6GJQsqaUBKTNV-1" source="VPJglRKq1H73eoKTP5gc-3" target="VPJglRKq1H73eoKTP5gc-17">
          <mxGeometry width="50" height="50" relative="1" as="geometry">
            <mxPoint x="618" y="280" as="sourcePoint" />
            <mxPoint x="668" y="230" as="targetPoint" />
          </mxGeometry>
        </mxCell>
        <mxCell id="VPJglRKq1H73eoKTP5gc-24" value="" style="endArrow=none;html=1;rounded=0;entryX=0;entryY=0;entryDx=0;entryDy=0;exitX=0.95;exitY=1;exitDx=0;exitDy=0;exitPerimeter=0;" edge="1" parent="WIyWlLk6GJQsqaUBKTNV-1" source="VPJglRKq1H73eoKTP5gc-3" target="VPJglRKq1H73eoKTP5gc-18">
          <mxGeometry width="50" height="50" relative="1" as="geometry">
            <mxPoint x="608" y="300" as="sourcePoint" />
            <mxPoint x="658" y="250" as="targetPoint" />
          </mxGeometry>
        </mxCell>
        <mxCell id="VPJglRKq1H73eoKTP5gc-25" value="NOMBRE" style="ellipse;whiteSpace=wrap;html=1;" vertex="1" parent="WIyWlLk6GJQsqaUBKTNV-1">
          <mxGeometry x="284" y="481.25" width="60" height="50" as="geometry" />
        </mxCell>
        <mxCell id="VPJglRKq1H73eoKTP5gc-27" value="CANT" style="ellipse;whiteSpace=wrap;html=1;" vertex="1" parent="WIyWlLk6GJQsqaUBKTNV-1">
          <mxGeometry x="384" y="521.25" width="50" height="30" as="geometry" />
        </mxCell>
        <mxCell id="VPJglRKq1H73eoKTP5gc-29" value="FECH- VENC" style="ellipse;whiteSpace=wrap;html=1;" vertex="1" parent="WIyWlLk6GJQsqaUBKTNV-1">
          <mxGeometry x="494" y="481.25" width="70" height="40" as="geometry" />
        </mxCell>
        <mxCell id="VPJglRKq1H73eoKTP5gc-30" value="" style="endArrow=none;html=1;rounded=0;entryX=0.067;entryY=1.025;entryDx=0;entryDy=0;entryPerimeter=0;exitX=0.817;exitY=0.02;exitDx=0;exitDy=0;exitPerimeter=0;" edge="1" parent="WIyWlLk6GJQsqaUBKTNV-1" source="VPJglRKq1H73eoKTP5gc-25" target="VPJglRKq1H73eoKTP5gc-4">
          <mxGeometry width="50" height="50" relative="1" as="geometry">
            <mxPoint x="324" y="481.25" as="sourcePoint" />
            <mxPoint x="374" y="431.25" as="targetPoint" />
          </mxGeometry>
        </mxCell>
        <mxCell id="VPJglRKq1H73eoKTP5gc-31" value="" style="endArrow=none;html=1;rounded=0;entryX=0.5;entryY=1;entryDx=0;entryDy=0;" edge="1" parent="WIyWlLk6GJQsqaUBKTNV-1" target="VPJglRKq1H73eoKTP5gc-4">
          <mxGeometry width="50" height="50" relative="1" as="geometry">
            <mxPoint x="408" y="521.25" as="sourcePoint" />
            <mxPoint x="458" y="471.25" as="targetPoint" />
          </mxGeometry>
        </mxCell>
        <mxCell id="VPJglRKq1H73eoKTP5gc-34" value="" style="endArrow=none;html=1;rounded=0;entryX=0.357;entryY=-0.05;entryDx=0;entryDy=0;entryPerimeter=0;exitX=1;exitY=0.75;exitDx=0;exitDy=0;" edge="1" parent="WIyWlLk6GJQsqaUBKTNV-1" source="VPJglRKq1H73eoKTP5gc-4" target="VPJglRKq1H73eoKTP5gc-29">
          <mxGeometry width="50" height="50" relative="1" as="geometry">
            <mxPoint x="434" y="461.25" as="sourcePoint" />
            <mxPoint x="484" y="411.25" as="targetPoint" />
          </mxGeometry>
        </mxCell>
        <mxCell id="VPJglRKq1H73eoKTP5gc-35" value="COMPRA" style="rhombus;whiteSpace=wrap;html=1;shadow=0;fontFamily=Helvetica;fontSize=12;align=center;strokeWidth=1;spacing=6;spacingTop=-4;" vertex="1" parent="WIyWlLk6GJQsqaUBKTNV-1">
          <mxGeometry x="508" y="353.75" width="116" height="115" as="geometry" />
        </mxCell>
        <mxCell id="VPJglRKq1H73eoKTP5gc-36" value="" style="rounded=0;html=1;jettySize=auto;orthogonalLoop=1;fontSize=11;endArrow=block;endFill=0;endSize=8;strokeWidth=1;shadow=0;labelBackgroundColor=none;edgeStyle=orthogonalEdgeStyle;entryX=0.5;entryY=0;entryDx=0;entryDy=0;exitX=0.5;exitY=1;exitDx=0;exitDy=0;" edge="1" parent="WIyWlLk6GJQsqaUBKTNV-1" source="VPJglRKq1H73eoKTP5gc-1" target="VPJglRKq1H73eoKTP5gc-2">
          <mxGeometry relative="1" as="geometry">
            <mxPoint x="230" y="274.25" as="sourcePoint" />
            <mxPoint x="222" y="333.75" as="targetPoint" />
          </mxGeometry>
        </mxCell>
        <mxCell id="VPJglRKq1H73eoKTP5gc-37" value="" style="rounded=0;html=1;jettySize=auto;orthogonalLoop=1;fontSize=11;endArrow=block;endFill=0;endSize=8;strokeWidth=1;shadow=0;labelBackgroundColor=none;edgeStyle=orthogonalEdgeStyle;entryX=0.5;entryY=0;entryDx=0;entryDy=0;exitX=0.5;exitY=1;exitDx=0;exitDy=0;" edge="1" parent="WIyWlLk6GJQsqaUBKTNV-1" source="VPJglRKq1H73eoKTP5gc-3" target="VPJglRKq1H73eoKTP5gc-35">
          <mxGeometry relative="1" as="geometry">
            <mxPoint x="558" y="255" as="sourcePoint" />
            <mxPoint x="580" y="332.5" as="targetPoint" />
          </mxGeometry>
        </mxCell>
        <mxCell id="VPJglRKq1H73eoKTP5gc-38" value="" style="rounded=0;html=1;jettySize=auto;orthogonalLoop=1;fontSize=11;endArrow=block;endFill=0;endSize=8;strokeWidth=1;shadow=0;labelBackgroundColor=none;edgeStyle=orthogonalEdgeStyle;entryX=1;entryY=0.5;entryDx=0;entryDy=0;exitX=0;exitY=0.5;exitDx=0;exitDy=0;" edge="1" parent="WIyWlLk6GJQsqaUBKTNV-1" source="VPJglRKq1H73eoKTP5gc-35" target="VPJglRKq1H73eoKTP5gc-4">
          <mxGeometry relative="1" as="geometry">
            <mxPoint x="499" y="371.25" as="sourcePoint" />
            <mxPoint x="526" y="462.25" as="targetPoint" />
          </mxGeometry>
        </mxCell>
      </root>
    </mxGraphModel>
  </diagram>
</mxfile>
